<svg width="150" height="150" xmlns="http://www.w3.org/2000/svg">
 <g id="Layer_1">
  <title>Layer 1</title>
  <path fill="#000" stroke-width="4" d="m74.99239,33.5177c4.50213,0.00547 8.8031,0.75488 12.87632,2.00685l-3.22366,5.35999l22.88275,0l-5.72215,-9.52703l-5.71778,-9.52418l-3.00989,5.01863c-5.641,-1.98268 -11.72222,-3.0923 -18.08149,-3.0923c-29.27123,0 -52.99648,22.80998 -52.99648,50.95011c0,11.67908 4.13187,22.4096 11.00821,31.00693l8.05839,-5.94815c-5.56139,-6.94782 -8.90521,-15.61774 -8.92335,-25.05596c0.0405,-22.75093 19.18674,-41.16001 42.84913,-41.19489l0,0zm41.99386,10.1959l-8.05837,5.951c5.55999,6.94518 8.90382,15.60963 8.91912,25.05066c-0.04051,22.75074 -19.18674,41.15719 -42.8505,41.19468c-4.19336,-0.00521 -8.20511,-0.66071 -12.02959,-1.75696l3.03357,-5.04295l-22.88265,0l5.71792,9.52175l5.72204,9.53489l3.19012,-5.32222c5.41043,1.81072 11.20092,2.82092 17.24858,2.82355c29.27545,-0.00524 52.99663,-22.81524 53.00351,-50.9554c-0.00688,-11.67906 -4.14168,-22.40695 -11.01376,-30.99899l0,0l0.00001,-0.00001z" id="svg_1" stroke="#000"/>
 </g>

</svg>