<?xml version="1.0"?><svg width="640" height="480" xmlns="http://www.w3.org/2000/svg" xmlns:xlink="http://www.w3.org/1999/xlink">
 <title>Car Outline - Top View</title>
 <defs>
  <linearGradient id="linearGradient3759">
   <stop id="stop3761" offset="0" stop-color="#1a1a1a"/>
   <stop id="stop3763" offset="1" stop-opacity="0" stop-color="#f30000"/>
  </linearGradient>
  <linearGradient x1="14.678357" y1="19.872129" x2="13.695145" y2="19.592937" id="linearGradient4149" xlink:href="#linearGradient3759"/>
  <linearGradient x1="16.491694" y1="22.266809" x2="13.615251" y2="22.120347" id="linearGradient4153" xlink:href="#linearGradient3759"/>
  <linearGradient x1="15.469636" y1="19.799639" x2="12.749702" y2="19.594922" id="linearGradient4155" xlink:href="#linearGradient3759"/>
  <linearGradient x1="14.678357" y1="16.723962" x2="13.695145" y2="17.003155" id="linearGradient4185" xlink:href="#linearGradient3759"/>
  <linearGradient x1="15.711045" y1="17.111929" x2="15.211872" y2="17.109569" id="linearGradient4187" xlink:href="#linearGradient3759"/>
  <linearGradient x1="15.469636" y1="16.796455" x2="12.749702" y2="17.001172" id="linearGradient4189" xlink:href="#linearGradient3759"/>
  <linearGradient x1="17.076677" y1="18.969658" x2="13.570121" y2="18.923824" id="linearGradient4195" xlink:href="#linearGradient3759"/>
  <linearGradient x1="16.491694" y1="18.580038" x2="13.615251" y2="18.726499" id="linearGradient4197" xlink:href="#linearGradient3759"/>
  <linearGradient x1="7.706729" y1="27.50684" x2="6.109362" y2="27.72477" id="linearGradient4201" xlink:href="#linearGradient3759"/>
  <linearGradient x1="15.711045" y1="19.484156" x2="15.211872" y2="19.486515" id="linearGradient4203" xlink:href="#linearGradient3759"/>
  <linearGradient x1="7.532872" y1="14.948688" x2="7.27572" y2="14.75762" id="linearGradient4205" xlink:href="#linearGradient3759"/>
  <linearGradient x1="7.217497" y1="15.211179" x2="6.363285" y2="13.825057" id="linearGradient4207" xlink:href="#linearGradient3759"/>
  <linearGradient x1="17.076677" y1="21.877193" x2="13.570121" y2="21.923027" id="linearGradient4209" xlink:href="#linearGradient3759"/>
  <linearGradient x1="6.884073" y1="31.698963" x2="5.286707" y2="31.194479" id="linearGradient4211" xlink:href="#linearGradient3759"/>
  <linearGradient x1="7.706729" y1="34.382484" x2="6.109362" y2="34.164553" id="linearGradient4213" xlink:href="#linearGradient3759"/>
 </defs>
 <g>
  <title>Layer 1</title>
  <path d="m367.687988,97.998299c-0.944,0.0056 -2.954987,0.190903 -4.048981,0.586899l-2.19101,0.939003l5.419006,22.497803l-78.136993,0.177002c-1.525024,0.003006 -3.059998,-0.009003 -4.597015,-0.020004c-3.074982,-0.020996 -6.175995,-0.065002 -9.292999,-0.136993c-4.565002,-0.105011 -9.182983,-0.258011 -13.811981,-0.450005c-0.247009,-0.010002 -0.495026,-0.028999 -0.743011,-0.039001c-9.347992,-0.395004 -18.786011,-0.933998 -28.19101,-1.526001c-12.724991,-0.803001 -25.366989,-1.695 -37.639999,-2.426003c-9.095001,-0.542 -17.987,-0.988998 -26.528,-1.251999c-5.86499,-0.181 -11.55899,-0.285995 -17.05899,-0.253998c-2.702011,0.014999 -5.363998,0.057999 -7.962997,0.137001c-2.598007,0.077995 -5.246002,0.222 -7.923004,0.410995c-1.337997,0.094002 -2.678009,0.194 -4.029999,0.313004c-4.050003,0.354996 -8.167007,0.826996 -12.266006,1.368996c-0.006996,0.000999 -0.013,-0.000999 -0.019997,0c-2.737,0.362 -5.458,0.767006 -8.177002,1.193001c-2.720001,0.427002 -5.43,0.875 -8.099998,1.349998c-2.662399,0.474007 -5.3022,0.980003 -7.883499,1.487015c-0.006302,0.000992 -0.013298,-0.001007 -0.0196,0c-1.293602,0.253998 -2.547798,0.503998 -3.814804,0.762985c-3.794701,0.776993 -7.471001,1.575012 -10.955597,2.367004c-0.006302,0.001999 -0.013199,-0.000992 -0.019501,0c-2.326599,0.529007 -4.562103,1.048996 -6.710197,1.565002c-4.297005,1.031998 -8.210701,2.024994 -11.601204,2.914993c-5.085598,1.335007 -9.003899,2.459 -11.327198,3.130997c-1.548599,0.448013 -2.3867,0.70401 -2.3867,0.70401l-8.568802,2.347c-0.564999,0.155991 -1.113197,0.43399 -1.643398,0.821991c-0.180099,0.132004 -0.352001,0.27301 -0.528202,0.431c-0.6884,0.613007 -1.3466,1.421005 -1.975899,2.406006c-0.002899,0.003998 0.002899,0.014999 0,0.018997c-0.313198,0.492004 -0.640099,1.027008 -0.938999,1.604996c-0.002701,0.005005 0.002598,0.014008 0,0.019012c-0.299,0.577988 -0.595501,1.19899 -0.880402,1.858994c-0.0023,0.005005 0.0023,0.014008 0,0.018997c-2.295696,5.327011 -4.144398,13.229004 -5.5951,22.675003c-0.000999,0.005997 0.000904,0.013 0,0.018997c-0.022499,0.147003 -0.036396,0.303009 -0.058697,0.449997c-0.315903,2.086014 -0.621101,4.256012 -0.899902,6.476013c-0.0191,0.151001 -0.039799,0.296997 -0.058701,0.449997c-0.313999,2.530991 -0.592697,5.134995 -0.860798,7.804993c-0.000698,0.007004 0.000599,0.014008 0,0.020004c-0.133701,1.332001 -0.2687,2.688995 -0.3913,4.050003c-0.000603,0.005997 0.000599,0.013 0,0.018997c-0.122601,1.360992 -0.240398,2.723007 -0.3521,4.108994c-0.000601,0.006012 0.0005,0.013 0,0.019012c-0.224001,2.778 -0.424601,5.599991 -0.606501,8.451996c-0.000401,0.005997 0.000401,0.013 0,0.018997c-0.546299,8.567001 -0.913799,17.397003 -1.115099,26.020004c-0.0002,0.005997 0.000099,0.013 0,0.018997c-0.1343,5.753006 -0.195702,11.401993 -0.195702,16.845001c0,0.606003 0.0172,1.229004 0.019501,1.839005c-0.0023,0.610001 -0.019501,1.232986 -0.019501,1.838989c0,5.442001 0.061401,11.091003 0.195601,16.843994c0.0002,0.007019 -0.000099,0.013 0,0.02002c0.201401,8.622986 0.568901,17.453003 1.115101,26.018982c0.000399,0.007019 -0.000401,0.013 0,0.02002c0.1819,2.850983 0.3825,5.673004 0.606499,8.450989c0.000502,0.006989 -0.0005,0.014008 0,0.019989c0.1117,1.38501 0.229498,2.747009 0.352098,4.108002c0.000603,0.007019 -0.0005,0.013 0,0.02002c0.122704,1.360992 0.257603,2.71698 0.3913,4.048981c0.000603,0.007019 -0.000595,0.014008 0,0.02002c0.268105,2.67099 0.546803,5.274994 0.860802,7.806c0.018898,0.151978 0.0396,0.298004 0.058701,0.449982c0.278801,2.218994 0.584,4.390015 0.899902,6.475006c0.022297,0.14801 0.036198,0.304016 0.058697,0.450012c0.0009,0.006989 -0.0009,0.013977 0,0.019989c1.450802,9.445007 3.299503,17.347015 5.5952,22.674011c0.0023,0.005981 -0.002399,0.013977 0,0.019989c0.284901,0.660004 0.581303,1.279999 0.880302,1.858002c0.002598,0.005005 -0.002602,0.014984 0,0.019989c0.298901,0.576996 0.625797,1.113007 0.938999,1.604004c0.002899,0.003998 -0.0028,0.015015 0,0.019012c0.629398,0.984985 1.287598,1.794006 1.975899,2.406982c0.176201,0.157013 0.348103,0.298004 0.528301,0.430023c0.530098,0.388 1.0784,0.665985 1.643299,0.821991l8.568802,2.347992c0,0 0.8381,0.256012 2.3867,0.70401c2.323299,0.67099 6.2416,1.794983 11.327297,3.130005c3.390404,0.889984 7.3041,1.882996 11.601105,2.914978c2.148193,0.516022 4.383598,1.036011 6.710197,1.565002c0.006401,0.001007 0.013298,-0.000977 0.0196,0c3.484596,0.792023 7.160896,1.589996 10.955498,2.367004c1.267105,0.26001 2.521301,0.509003 3.814903,0.763c0.006302,0.002014 0.013199,-0.001007 0.019501,0c2.581299,0.507019 5.2211,1.013 7.883598,1.487c2.669998,0.475006 5.379997,0.924011 8.099998,1.350006c2.719002,0.425995 5.440002,0.830994 8.177002,1.192993c0.006996,0.001007 0.013,0 0.019997,0c4.098999,0.542999 8.216003,1.014008 12.266006,1.369995c1.35199,0.119019 2.692001,0.219025 4.029999,0.313019c2.677002,0.187988 5.324997,0.332001 7.923004,0.41098c2.598999,0.078003 5.260986,0.121002 7.962997,0.137024c5.5,0.030975 11.192993,-0.074005 17.05899,-0.255005c8.541,-0.263 17.432999,-0.710022 26.528,-1.252014c12.27301,-0.730988 24.915009,-1.622986 37.639999,-2.425995c9.404999,-0.59201 18.843018,-1.131012 28.19101,-1.526001c0.247986,-0.01001 0.496002,-0.027985 0.743011,-0.039001c4.628998,-0.19101 9.246979,-0.345001 13.811981,-0.449982c3.117004,-0.071014 6.218018,-0.115021 9.292999,-0.137024c1.537018,-0.009979 3.071991,-0.02298 4.597015,-0.018982l78.136993,0.175995l-5.419006,22.497986l2.19101,0.939026c1.093994,0.395996 3.10498,0.580994 4.048981,0.586975c0.532013,0.003021 1.098999,-0.04599 1.683014,-0.155975c0.194,-0.037018 0.389984,-0.08902 0.587006,-0.137024c0.190002,-0.048004 0.395996,-0.097992 0.587006,-0.156982c0.392975,-0.121002 0.790985,-0.264008 1.172974,-0.430023c1.141022,-0.496979 2.213013,-1.208984 2.994019,-2.073975c0.005981,-0.007019 0.013,-0.013 0.018982,-0.02002c0.391022,-0.436005 0.696014,-0.90799 0.920013,-1.427979l7.609985,-19.603027l68.824005,0.157013c0.468018,0.234009 0.924011,0.466003 1.389008,0.684998c1.86499,0.876007 3.700989,1.626007 5.536011,2.269012c0.915985,0.320984 1.826996,0.610992 2.738983,0.880005c3.192993,0.944 6.378021,1.597992 9.606018,2.034973c1.843994,0.25 3.709991,0.434021 5.595001,0.567017c0.942993,0.066986 1.899994,0.113007 2.855988,0.156982c1.914001,0.088013 3.842987,0.133026 5.829987,0.156006c3.973999,0.046997 8.126007,0 12.521027,0c6.516998,0 12.721954,-0.332001 18.644012,-0.977997c2.368958,-0.257996 4.690002,-0.561981 6.964966,-0.919006c4.549011,-0.714996 8.906982,-1.639984 13.087036,-2.738983c1.045959,-0.274994 2.088989,-0.563019 3.110962,-0.860992c3.067017,-0.894012 6.018005,-1.894012 8.882019,-2.993011c0.953979,-0.367004 1.903992,-0.72699 2.836975,-1.11499c1.864014,-0.778015 3.682007,-1.601013 5.458008,-2.464996c0.888,-0.432007 1.775024,-0.877014 2.640991,-1.331024c1.731995,-0.906982 3.421997,-1.86499 5.067017,-2.855988c0.822021,-0.494995 1.625,-1.01001 2.426025,-1.526001c4.002991,-2.57901 7.738953,-5.399994 11.208984,-8.471008c2.77301,-2.453979 5.38501,-5.057983 7.825989,-7.806c0.002991,-0.003998 -0.002991,-0.015991 0,-0.018982c0.606995,-0.684998 1.211975,-1.372009 1.799988,-2.074005c0.002991,-0.003998 -0.002991,-0.015991 0,-0.02002c0.587036,-0.700989 1.174011,-1.412994 1.741028,-2.131989c0.002991,-0.003998 -0.002991,-0.015991 0,-0.019989c1.705994,-2.165009 3.325989,-4.394012 4.85199,-6.710022c0.002991,-0.003998 -0.004028,-0.014984 0,-0.019989c0.505981,-0.769012 1.018982,-1.541992 1.505981,-2.328003c0.002991,-0.005005 -0.002991,-0.014008 0,-0.018982c1.465027,-2.365021 2.859009,-4.791016 4.147034,-7.297028c0.002991,-0.004974 -0.002014,-0.014984 0,-0.019989c0.427979,-0.832001 0.843994,-1.675995 1.252991,-2.523987c0.002014,-0.005005 -0.002991,-0.014008 0,-0.019012c0.40802,-0.846985 0.822998,-1.700989 1.211975,-2.562988c0.002991,-0.006012 -0.002014,-0.014008 0,-0.019012c0.781006,-1.730011 1.527039,-3.475983 2.231018,-5.263c0.002014,-0.005981 -0.002991,-0.014008 0,-0.019989c0.349976,-0.890015 0.684998,-1.795013 1.016968,-2.699005c0.002014,-0.006012 -0.001953,-0.014008 0,-0.019989c0.332031,-0.904999 0.665039,-1.820007 0.978027,-2.739014c0.312988,-0.917999 0.625,-1.846008 0.919983,-2.777985c0.002014,-0.006012 -0.001953,-0.014008 0,-0.019012c0.294006,-0.932007 0.585022,-1.873016 0.861023,-2.817993c0.000977,-0.006012 -0.002014,-0.013 0,-0.019012c0.275024,-0.945007 0.544006,-1.898987 0.802002,-2.855988c0.000977,-0.007019 -0.002014,-0.014008 0,-0.02002c0.775024,-2.885986 1.481995,-5.825989 2.093018,-8.822998l0,-0.019989c0.201965,-0.994995 0.382996,-2.006012 0.566956,-3.011993l0,-0.02002c1.299011,-7.085999 2.16803,-14.437988 2.602051,-22.048004c0.000977,-0.006989 0,-0.013 0,-0.019989c0.061951,-1.082001 0.112,-2.175995 0.156982,-3.266998c0,-0.005981 -0.001038,-0.013 0,-0.018982c0.088989,-2.190002 0.153992,-4.387009 0.175964,-6.613022c0,-0.005997 0,-0.013 0,-0.018997c0.01001,-1.117004 0.006042,-2.23999 0,-3.36499c0,-0.39801 -0.013977,-0.796005 -0.019958,-1.194c0.006958,-0.397003 0.019958,-0.795013 0.019958,-1.193008c0.006042,-1.125 0.01001,-2.248993 0,-3.365005c0,-0.006989 0,-0.012985 0,-0.019989c-0.021973,-2.225006 -0.086975,-4.423004 -0.175964,-6.612c-0.001038,-0.007004 0,-0.013 0,-0.020004c-0.044983,-1.091003 -0.095032,-2.184998 -0.156982,-3.266998c0,-0.005997 0.000977,-0.013 0,-0.018997c-0.434021,-7.611008 -1.30304,-14.962997 -2.602051,-22.049011l0,-0.018997c-0.18396,-1.006989 -0.36499,-2.01799 -0.566956,-3.013l0,-0.018997c-0.611023,-2.998001 -1.317993,-5.938004 -2.093018,-8.824005c-0.002014,-0.005997 0.000977,-0.013 0,-0.018997c-0.257996,-0.957993 -0.526978,-1.910995 -0.802002,-2.856003c-0.002014,-0.006989 0.000977,-0.013992 0,-0.019989c-0.276001,-0.945007 -0.567017,-1.88501 -0.861023,-2.817001c-0.001953,-0.005997 0.002014,-0.014008 0,-0.020004c-0.294983,-0.931992 -0.606995,-1.858994 -0.919983,-2.778c-0.312988,-0.917999 -0.645996,-1.834 -0.978027,-2.738998c-0.001953,-0.005005 0.002014,-0.014008 0,-0.018997c-0.33197,-0.904999 -0.666992,-1.809006 -1.016968,-2.699997c-0.002991,-0.006012 0.002014,-0.014008 0,-0.020004c-0.703979,-1.787003 -1.450012,-3.533005 -2.231018,-5.262009c-0.002014,-0.00499 0.002991,-0.013992 0,-0.019989c-0.388977,-0.862 -0.803955,-1.715012 -1.211975,-2.562012c-0.002991,-0.005997 0.002014,-0.014999 0,-0.019989c-0.408997,-0.847 -0.825012,-1.692001 -1.252991,-2.524002c-0.002014,-0.005005 0.002991,-0.014008 0,-0.018997c-1.288025,-2.507004 -2.682007,-4.932007 -4.147034,-7.298004c-0.002991,-0.003998 0.002991,-0.014008 0,-0.018997c-0.487,-0.785004 -1,-1.559006 -1.505981,-2.328003c-0.004028,-0.005005 0.002991,-0.014999 0,-0.020004c-1.526001,-2.315994 -3.145996,-4.544998 -4.85199,-6.709991c-0.002991,-0.003998 0.002991,-0.016006 0,-0.018997c-0.567017,-0.719009 -1.153992,-1.431 -1.741028,-2.133011c-0.002991,-0.003998 0.002991,-0.015991 0,-0.018997c-0.588013,-0.701996 -1.192993,-1.389999 -1.799988,-2.074005c-0.002991,-0.003998 0.002991,-0.015991 0,-0.019989c-2.440979,-2.747009 -5.052979,-5.352005 -7.825989,-7.806c-3.470032,-3.070999 -7.205994,-5.891006 -11.208984,-8.471008c-0.801025,-0.515991 -1.604004,-1.029999 -2.426025,-1.525986c-1.64502,-0.990005 -3.335022,-1.949005 -5.067017,-2.856018c-0.865967,-0.453003 -1.752991,-0.897995 -2.640991,-1.329987c-1.776001,-0.865005 -3.593994,-1.688004 -5.458008,-2.464996c-0.932983,-0.389008 -1.882996,-0.749008 -2.836975,-1.115021c-2.864014,-1.099991 -5.815002,-2.098991 -8.882019,-2.993988c-1.021973,-0.298004 -2.065002,-0.585999 -3.110962,-0.860001c-4.180054,-1.099998 -8.538025,-2.024002 -13.087036,-2.738998c-2.274963,-0.358002 -4.596008,-0.662003 -6.964966,-0.920006c-5.921021,-0.645996 -12.127014,-0.978996 -18.644012,-0.978996c-4.39502,0 -8.547028,-0.045998 -12.521027,0c-1.985992,0.023003 -3.915985,0.069 -5.828979,0.156998c-0.957001,0.042999 -1.914001,0.090004 -2.856995,0.156006c-1.88501,0.132996 -3.75,0.317993 -5.595001,0.567993c-3.22702,0.437004 -6.413025,1.090004 -9.606018,2.034004c-0.911987,0.269997 -1.822998,0.559998 -2.738007,0.879997c-1.835999,0.644005 -3.671997,1.394005 -5.536987,2.270004c-0.464996,0.217995 -0.92099,0.450996 -1.389008,0.684998l-68.824005,0.156006l-7.609985,-19.602608c-0.222992,-0.5196 -0.528992,-0.991295 -0.920013,-1.428101c-0.005981,-0.006599 -0.013,-0.012901 -0.018982,-0.0196c-0.781006,-0.864601 -1.852997,-1.576996 -2.993011,-2.0737c-0.382996,-0.166595 -0.781006,-0.309494 -1.173981,-0.430496c-0.19101,-0.058304 -0.397003,-0.1092 -0.587006,-0.156403c-0.197021,-0.048798 -0.393005,-0.100395 -0.587006,-0.137001c-0.584015,-0.1101 -1.151001,-0.159599 -1.683014,-0.156502l0,-0.000198l0,0l0,-0.000099z" id="path3855" stroke-miterlimit="4" stroke-width="14" stroke="darkred" fill="none" transform="rotate(-180 319.1156005859375,242.61271667480466) "/>
  <path d="m125.107208,152.769928l-2.778015,1.467285c0.61927,0.724213 1.124084,1.520416 1.486877,2.406342c3.003662,7.335266 -6.721069,18.302795 -16.824547,22.400391c-0.323494,0.131195 -1.134895,0.526245 -2.132454,1.036865l8.529694,-2.425903c10.834045,-5.2948 17.19751,-14.450165 14.39875,-21.285278c-0.573555,-1.400635 -1.487007,-2.608093 -2.680244,-3.599701l-0.000061,0z" id="path3757" fill="url(#linearGradient4149)" transform="rotate(-179.93699645996094 116.65299987792969,166.4250030517578) "/>
  <path d="m119.732086,155.557251l-2.778015,1.467285c0.619202,0.724213 1.124092,1.520416 1.486877,2.406342c3.003662,7.335266 -6.721069,18.302795 -16.824585,22.400391c-0.32354,0.131195 -1.134956,0.526245 -2.132446,1.036865l8.529663,-2.425903c10.834106,-5.2948 17.197571,-14.450165 14.398682,-21.285248c-0.573479,-1.400696 -1.486938,-2.608124 -2.680115,-3.599731l-0.000061,0z" id="path3787" fill="url(#linearGradient4203)" transform="rotate(-179.93699645996094 111.27700042724608,169.21200561523435) "/>
  <path d="m115.854492,156.437149l-2.778015,1.467285c0.619202,0.724213 1.124023,1.520416 1.486816,2.406342c3.00367,7.335266 -6.721077,18.302765 -16.824524,22.400391c-0.323547,0.131195 -1.134949,0.526245 -2.132446,1.036865l8.529724,-2.425903c10.834045,-5.2948 17.19751,-14.450165 14.398682,-21.285278c-0.573547,-1.400635 -1.487,-2.608093 -2.680176,-3.599701l-0.000061,0z" id="path3752" fill="url(#linearGradient4155)" transform="rotate(-179.93699645996094 107.40100097656249,170.0930023193359) "/>
  <path d="m135.347076,149.653519l-3.873596,1.154236c0.601135,1.072327 1.035767,2.211365 1.271667,3.423645c1.95282,10.037811 -13.122986,21.462799 -26.93885,24.102417c-2.125359,0.406067 -18.082474,5.368927 -20.13205,5.511932l0,2.582397l25.94236,-7.605194c16.455688,-3.440918 28.139648,-14.053284 26.215088,-23.945923c-0.372925,-1.916718 -1.224609,-3.668335 -2.484558,-5.223511l-0.000061,0z" id="path3735" fill="url(#linearGradient4205)" transform="rotate(-179.93699645996094 111.85600280761719,168.0410003662109) "/>
  <path d="m135.347076,149.653519l-3.873596,1.154236c0.601135,1.072327 1.035767,2.211365 1.271667,3.423645c1.95282,10.037811 -13.122986,21.462799 -26.93885,24.102417c-2.125359,0.406067 -18.082474,5.368927 -20.13205,5.511932l0,2.582397l25.94236,-7.605194c16.455688,-3.440918 28.139648,-14.053284 26.215088,-23.945923c-0.372925,-1.916718 -1.224609,-3.668335 -2.484558,-5.223511l-0.000061,0z" id="path3783" fill="url(#linearGradient4207)" transform="rotate(-179.93699645996094 111.85600280761719,168.0410003662109) "/>
  <path d="m131.347534,152.79863l-2.481628,1.31076c0.553162,0.646973 1.00415,1.358246 1.328186,2.149658c2.683289,6.552795 -6.004028,16.350281 -15.029633,20.010742c-0.289063,0.117218 -1.013916,0.470154 -1.904968,0.92627l7.619751,-2.167084c9.678253,-4.730011 15.362885,-12.908691 12.86264,-19.014618c-0.512329,-1.251251 -1.328308,-2.329926 -2.394226,-3.215729l-0.000122,0z" id="path3799" fill="url(#linearGradient4209)" transform="rotate(-179.93699645996094 123.7949981689453,164.9969940185547) "/>
  <path d="m139.995178,150.568542l-2.481598,1.310791c0.553101,0.646912 1.004089,1.358185 1.328156,2.149628c2.683289,6.552765 -6.003998,16.350281 -15.029755,20.010742c-0.28894,0.117249 -1.013855,0.470154 -1.904915,0.92627l7.619759,-2.167114c9.678253,-4.72998 15.362885,-12.90863 12.86264,-19.014557c-0.51239,-1.251251 -1.328308,-2.329926 -2.394226,-3.215698l-0.000061,-0.000061z" id="path3803" fill="url(#linearGradient4153)" transform="rotate(-179.93699645996094 132.44200134277344,162.7689971923828) "/>
  <path d="m496.50061,146.222504c5.191711,-1.266693 9.694519,-0.925781 12.393921,3.622986l-1.560913,11.204041c-4.304077,3.864685 -8.608185,3.099426 -12.912262,0.097321l2.079224,-14.924347l0.000031,0z" id="rect3861" fill="url(#linearGradient4211)" transform="rotate(-179.93699645996094 501.656005859375,154.63299560546872) "/>
  <path d="m484.301361,145.220612c5.102325,-0.757629 9.494904,-0.358612 11.796295,3.448273l-1.485657,10.663788c-4.059143,1.862335 -8.127747,3.261414 -12.289612,0.09259l1.979004,-14.204651l-0.000031,0z" id="path3864" fill="url(#linearGradient4213)" transform="rotate(-179.93699645996094 489.2109985351562,153.10400390624997) "/>
  <path d="m124.949829,324.016815l-2.778023,-1.467255c0.61927,-0.724213 1.124092,-1.520447 1.486885,-2.406372c3.003662,-7.335266 -6.721069,-18.302765 -16.824554,-22.40036c-0.323486,-0.131226 -1.134888,-0.526276 -2.132446,-1.036896l8.529686,2.425903c10.834053,5.2948 17.197517,14.450165 14.39875,21.285278c-0.573547,1.400665 -1.487,2.608093 -2.680237,3.599701l-0.000061,0z" id="path4165" fill="url(#linearGradient4185)" transform="rotate(-179.93699645996094 116.49600219726562,310.36099243164057) "/>
  <path d="m119.580811,321.217834l-2.778008,-1.467285c0.619194,-0.724213 1.124077,-1.520447 1.48687,-2.406311c3.003654,-7.335327 -6.721069,-18.302826 -16.824585,-22.400421c-0.323547,-0.131195 -1.134949,-0.526276 -2.132446,-1.036896l8.529655,2.425903c10.834114,5.2948 17.197586,14.450195 14.398689,21.285278c-0.573486,1.400665 -1.486938,2.608124 -2.680115,3.599731l-0.000061,0z" id="path4167" fill="url(#linearGradient4187)" transform="rotate(-179.93699645996094 111.1259994506836,307.56201171875) "/>
  <path d="m115.705139,320.3255l-2.778023,-1.467255c0.619217,-0.724213 1.124031,-1.520416 1.486824,-2.406342c3.003662,-7.335297 -6.721069,-18.302795 -16.824524,-22.400391c-0.323547,-0.131226 -1.134949,-0.526276 -2.132446,-1.036865l8.529716,2.425903c10.834053,5.2948 17.19751,14.450134 14.398697,21.285248c-0.573555,1.400665 -1.487007,2.608124 -2.680183,3.599701l-0.000061,0z" id="path4169" fill="url(#linearGradient4189)" transform="rotate(-179.93699645996094 107.25199890136717,306.6709899902343) "/>
  <path d="m131.187042,323.999878l-2.481628,-1.310791c0.553162,-0.646912 1.00415,-1.358215 1.328186,-2.149628c2.683289,-6.552795 -6.004028,-16.350281 -15.029633,-20.010773c-0.28907,-0.117218 -1.013916,-0.470123 -1.904968,-0.926239l7.619751,2.167084c9.678253,4.72998 15.362885,12.908661 12.86264,19.014648c-0.512329,1.251221 -1.328308,2.329895 -2.394226,3.215698l-0.000122,0z" id="path4175" fill="url(#linearGradient4195)" transform="rotate(-179.93699645996094 123.63500213623044,311.80200195312494) "/>
  <path d="m139.829742,326.24884l-2.481598,-1.31076c0.553101,-0.646942 1.004089,-1.358246 1.328156,-2.149628c2.683289,-6.552795 -6.003998,-16.350281 -15.029747,-20.010773c-0.28894,-0.117218 -1.013863,-0.470123 -1.904915,-0.926239l7.619751,2.167084c9.678253,4.72998 15.362885,12.908661 12.86264,19.014587c-0.51239,1.251221 -1.328308,2.329895 -2.394226,3.215698l-0.000061,0.000031z" id="path4177" fill="url(#linearGradient4197)" transform="rotate(-179.93699645996094 132.27699279785156,314.0499877929687) "/>
  <path d="m484.113983,332.380798c5.102325,0.757629 9.494904,0.358582 11.796295,-3.448303l-1.485657,-10.663757c-4.059143,-1.862335 -8.127747,-3.261414 -12.289612,-0.092621l1.979004,14.204681l-0.000031,0z" id="path4181" fill="url(#linearGradient4201)" transform="rotate(-179.93699645996094 489.02301025390625,324.49600219726557) "/>
 </g>
</svg>